<svg width="320" height="172" viewBox="0 0 320 172" fill="none" xmlns="http://www.w3.org/2000/svg">
<path d="M44.4707 45.6704L60.8332 25.4686L107.938 24.4404L139.876 60.6499L136.688 88.8589L153.42 109.326L171.164 130.08L143.489 150.431L81.6757 131.564L79.1146 92.1885L66.2606 58.9749L44.4707 45.6704Z" fill="#023359"/>
<path d="M218.935 76.9097C219.079 76.2288 219.2 75.5479 219.288 74.867C221.279 62.1004 218.846 51.0361 212.191 40.2985L212.255 40.4347C200.846 22.8542 181.128 9.99233 160.711 4.31375C145.681 0.133112 131.004 -1.02439 113.341 0.909321C118.046 0.569457 122.783 1.04672 127.263 2.31194C152.602 9.45442 167.792 34.9195 159.378 56.2993C157.296 61.5572 156.411 67.1025 156.768 72.6405C156.818 74.3842 157.068 76.1196 157.515 77.8221C158.989 83.5062 162.624 88.6223 167.862 92.3833C173.099 96.1443 179.648 98.342 186.502 98.6383C193.356 98.9346 200.135 97.3131 205.796 94.0233C211.457 90.7334 215.687 85.9574 217.835 80.4299C218.293 79.2785 218.661 78.1025 218.935 76.9097Z" fill="#023359"/>
<path d="M1.03564 94.9118C0.885771 95.5927 0.765343 96.2736 0.674351 96.9545C-1.31677 109.714 1.11593 120.785 7.77975 131.523L7.7075 131.387C19.1243 148.967 38.8348 161.829 59.2598 167.508C74.2895 171.688 88.966 172.839 106.629 170.912C101.932 171.25 97.2024 170.771 92.7315 169.503C67.3848 162.353 52.1945 136.895 60.6167 115.515C62.6997 110.258 63.5825 104.712 63.2179 99.1742C63.0674 93.6982 60.9278 88.395 57.0913 83.9885C53.2547 79.5821 47.9081 76.2871 41.7813 74.5534C37.8738 73.441 33.7457 72.9938 29.6339 73.2375C25.5221 73.4811 21.5075 74.4109 17.8204 75.9734C14.1332 77.5359 10.8462 79.7004 8.14769 82.3428C5.44923 84.9851 3.39248 88.0533 2.09543 91.3712C1.64564 92.5291 1.29152 93.7122 1.03564 94.9118Z" fill="#023359"/>
<path d="M194.07 117.136C194.527 115.774 195.009 113.636 195.258 112.458C195.403 111.778 195.507 111.097 195.587 110.416C195.948 107.822 196.109 105.211 196.069 102.599C188.863 104.572 181.101 104.529 173.926 102.477C162.252 99.1812 153.966 91.3919 151.237 82.4723C150.711 80.7615 150.396 79.009 150.297 77.2431C149.746 71.6919 150.535 66.1036 152.618 60.8201C161.008 39.4335 148.868 13.4782 121.547 5.7706C117.532 4.64033 112.057 4.0752 106.292 4.0752C66.7426 6.79873 34.7402 26.987 25.8765 54.6445C25.435 56.1016 24.9291 58.1443 24.6883 59.3222C24.5438 60.0031 24.4314 60.684 24.3591 61.3648C24.0001 63.9589 23.8365 66.5697 23.8694 69.1814C31.0785 67.2094 38.8441 67.2547 46.0205 69.3108C57.6943 72.6062 65.9799 80.3956 68.7016 89.3084C69.2308 91.0209 69.5457 92.7759 69.641 94.5444C70.1898 100.094 69.3947 105.681 67.3046 110.96C58.9227 132.34 71.0621 158.302 98.3838 166.01C102.398 167.14 108.821 167.705 113.638 167.705C153.196 164.989 185.206 144.8 194.07 117.136Z" fill="#023359"/>
<path d="M320 112.063C320 158.234 262.089 171.852 152.875 171.852C152.875 171.852 207.831 159.807 224.033 100.924C230.127 79.5578 251.611 71.36 273.217 72.3949C301.855 73.8044 320 91.8682 320 112.063Z" fill="#023359"/>
<path d="M270.045 146.85C291.804 146.85 309.442 131.891 309.442 113.439C309.442 94.9865 291.804 80.0278 270.045 80.0278C248.287 80.0278 230.648 94.9865 230.648 113.439C230.648 131.891 248.287 146.85 270.045 146.85Z" fill="#023359"/>
<path d="M310.02 75.5338C292.59 39.7601 258.042 16.0858 183.592 5.85889C183.592 5.85889 241.335 27.0276 230.022 78.9791C230.022 78.9791 241.881 64.1358 268.07 64.1358C296.588 64.1358 310.02 75.5338 310.02 75.5338Z" fill="#023359"/>
</svg>
