<svg width="40" height="40" viewBox="0 0 40 40" fill="none" xmlns="http://www.w3.org/2000/svg">
<path d="M37.4993 31.3346H32.4991C32.1195 31.3354 31.7448 31.2495 31.4035 31.0833C31.0622 30.9172 30.7635 30.6752 30.53 30.3759L25.6549 24.1571C25.5482 24.0207 25.4016 23.9209 25.2355 23.8717C25.0694 23.8224 24.8921 23.8262 24.7283 23.8824C24.5645 23.9385 24.4222 24.0443 24.3213 24.1849C24.2204 24.3256 24.1659 24.4943 24.1653 24.6674V27.1675C24.1653 29.4699 21.9255 31.3346 19.165 31.3346C18.0859 31.3444 17.0265 31.0443 16.1128 30.47C9.11238 25.9904 4.36208 20.334 0.237118 11.5629C0.0582951 11.182 -0.0215238 10.7622 0.00505528 10.3423C0.0316343 9.92238 0.163752 9.51598 0.389169 9.16072C0.614587 8.80546 0.926015 8.51283 1.29461 8.30994C1.6632 8.10704 2.07703 8.00045 2.49777 8.00003H7.49801C7.98743 7.99886 8.46644 8.14135 8.87565 8.40983C9.28486 8.67832 9.60628 9.06099 9.80007 9.51042L10.3625 10.8231C11.2124 12.795 12.3537 14.6281 13.7483 16.261C13.7938 16.3098 13.8585 16.3366 13.9253 16.3339C13.9557 16.3368 13.9864 16.3332 14.0154 16.3235C14.0443 16.3138 14.0709 16.2981 14.0935 16.2775C14.1161 16.2569 14.1341 16.2318 14.1465 16.2038C14.1588 16.1758 14.165 16.1456 14.1649 16.115V12.8544C13.0211 12.4458 12.3367 11.2742 12.5421 10.0772C12.7475 8.88023 13.7835 8.0041 14.9984 8.00003H21.6651C23.0458 8.00003 24.1652 9.11946 24.1652 10.5002V16.3339C24.1655 16.515 24.2248 16.6911 24.3341 16.8355C24.4434 16.9799 24.5968 17.0847 24.7711 17.1342C24.9453 17.1836 25.131 17.1749 25.2998 17.1094C25.4687 17.0439 25.6116 16.9252 25.707 16.7712L30.3633 9.1979C30.5852 8.83047 30.8987 8.52692 31.273 8.31695C31.6474 8.10698 32.0699 7.99778 32.4991 8.00003H37.4993C37.9527 8.00021 38.3975 8.12368 38.7861 8.3572C39.1747 8.59073 39.4924 8.92553 39.7054 9.32577C39.9183 9.72602 40.0184 10.1766 39.995 10.6294C39.9715 11.0821 39.8253 11.52 39.5722 11.8961L34.3219 19.1777C34.2185 19.32 34.1628 19.4914 34.1628 19.6673C34.1628 19.8433 34.2185 20.0147 34.3219 20.157L39.5307 27.3759C39.7989 27.7496 39.9588 28.19 39.9929 28.6486C40.0271 29.1073 39.934 29.5665 39.724 29.9757C39.514 30.3849 39.1953 30.7282 38.8028 30.968C38.4103 31.2077 37.9593 31.3346 37.4993 31.3346ZM24.9987 22.1673C25.3783 22.1665 25.7529 22.2525 26.0941 22.4186C26.4354 22.5847 26.7341 22.8267 26.9675 23.1259L31.8426 29.3447C31.9203 29.4449 32.0198 29.5261 32.1335 29.582C32.2473 29.638 32.3723 29.6673 32.4991 29.6676H37.4993C37.6532 29.6681 37.8042 29.6259 37.9356 29.5458C38.067 29.4657 38.1736 29.3508 38.2437 29.2138C38.3138 29.0768 38.3446 28.9231 38.3327 28.7697C38.3208 28.6162 38.2666 28.4691 38.1762 28.3446L32.9679 21.1257C32.6601 20.6997 32.4945 20.1876 32.4945 19.6621C32.4945 19.1366 32.6601 18.6245 32.9679 18.1986L38.2077 10.9378C38.2901 10.8068 38.3334 10.6549 38.3325 10.5002C38.3325 10.04 37.9595 9.66667 37.4993 9.66667H32.4991C32.3571 9.66678 32.2174 9.70321 32.0934 9.7725C31.9694 9.84179 31.8652 9.94164 31.7907 10.0626L27.1342 17.6358C26.5512 18.5935 25.4019 19.0461 24.3224 18.7427C23.243 18.4397 22.4977 17.4549 22.4986 16.3339V10.5002C22.4986 10.04 22.1253 9.66667 21.6652 9.66667H14.9983C14.5377 9.66667 14.1648 10.04 14.1648 10.5002C14.1648 10.9603 14.5377 11.3336 14.9983 11.3336H15.8314V16.1151C15.8268 16.5014 15.705 16.8772 15.482 17.1927C15.2591 17.5082 14.9455 17.7485 14.5829 17.8818C14.2203 18.0151 13.8258 18.035 13.4516 17.939C13.0774 17.843 12.7412 17.6356 12.4875 17.3443C10.9861 15.5862 9.75715 13.6128 8.84166 11.4899L8.26851 10.1773C8.20479 10.0257 8.09762 9.89626 7.96049 9.80539C7.82337 9.71452 7.66243 9.66626 7.49793 9.66667H2.49769C2.2133 9.66824 1.94923 9.81473 1.79727 10.0552C1.72252 10.1735 1.67877 10.3088 1.67007 10.4485C1.66138 10.5882 1.688 10.7278 1.7475 10.8545C5.7791 19.4275 10.2062 24.7092 17.0189 29.0741C17.6644 29.4694 18.4081 29.6751 19.165 29.6676C20.9983 29.6676 22.4986 28.5427 22.4986 27.1675V24.6674C22.4986 23.2867 23.6177 22.1673 24.9987 22.1673Z" fill="white"/>
</svg>
