<svg width="100" height="30" viewBox="0 0 100 30" fill="none" xmlns="http://www.w3.org/2000/svg">
<g clip-path="url(#clip0_76_1330)">
<path d="M7.05566 7.97394L9.65171 4.44754L17.1252 4.26807L22.1925 10.5887L21.6868 15.5129L24.3414 19.0856L27.1566 22.7083L22.7657 26.2609L12.9585 22.9674L12.5522 16.0941L10.5128 10.2964L7.05566 7.97394Z" fill="url(#paint0_linear_76_1330)"/>
<path d="M34.7358 13.4272C34.7588 13.3083 34.7779 13.1895 34.7919 13.0706C35.1078 10.8421 34.7218 8.91073 33.6658 7.0364L33.676 7.06017C31.8659 3.99136 28.7374 1.7462 25.4981 0.754954C23.1135 0.025189 20.7849 -0.176863 17.9825 0.160683C18.729 0.101357 19.4806 0.184667 20.1913 0.405522C24.2115 1.6523 26.6216 6.09745 25.2866 9.82947C24.9564 10.7473 24.8159 11.7153 24.8726 12.682C24.8805 12.9863 24.9202 13.2893 24.9911 13.5865C25.225 14.5787 25.8017 15.4717 26.6327 16.1282C27.4636 16.7848 28.5027 17.1684 29.5901 17.2201C30.6775 17.2718 31.753 16.9888 32.6512 16.4145C33.5494 15.8402 34.2205 15.0066 34.5613 14.0417C34.634 13.8407 34.6923 13.6354 34.7358 13.4272Z" fill="url(#paint1_linear_76_1330)"/>
<path d="M0.166754 16.5696C0.142976 16.6885 0.123869 16.8073 0.109433 16.9262C-0.206475 19.1535 0.179493 21.0861 1.23676 22.9604L1.2253 22.9367C3.03667 26.0055 6.1639 28.2506 9.4045 29.2419C11.7891 29.9716 14.1176 30.1725 16.92 29.8361C16.1748 29.8952 15.4244 29.8114 14.7151 29.5901C10.6936 28.3421 8.28354 23.8982 9.61978 20.1662C9.95026 19.2484 10.0903 18.2803 10.0325 17.3137C10.0086 16.3578 9.66915 15.4321 9.06044 14.6629C8.45174 13.8937 7.60346 13.3185 6.63139 13.0159C6.01143 12.8217 5.35648 12.7436 4.70411 12.7862C4.05173 12.8287 3.41478 12.991 2.82979 13.2638C2.2448 13.5365 1.72327 13.9143 1.29514 14.3756C0.867007 14.8368 0.540686 15.3724 0.334899 15.9516C0.263536 16.1537 0.207352 16.3602 0.166754 16.5696Z" fill="url(#paint2_linear_76_1330)"/>
<path d="M30.7908 20.4491C30.8634 20.2114 30.9398 19.8382 30.9793 19.6326C31.0022 19.5137 31.0188 19.3949 31.0315 19.276C31.0888 18.8233 31.1143 18.3675 31.1079 17.9116C29.9647 18.2559 28.7331 18.2484 27.5947 17.8902C25.7426 17.3149 24.428 15.9552 23.9949 14.3983C23.9115 14.0996 23.8616 13.7937 23.8459 13.4855C23.7584 12.5165 23.8836 11.541 24.214 10.6187C25.5452 6.88548 23.6191 2.35476 19.2843 1.00933C18.6474 0.812029 17.7787 0.713379 16.8641 0.713379C10.5892 1.1888 5.51178 4.71282 4.10549 9.54068C4.03543 9.79503 3.95518 10.1516 3.91696 10.3572C3.89403 10.4761 3.8762 10.5949 3.86473 10.7138C3.80777 11.1666 3.78182 11.6223 3.78703 12.0782C4.93082 11.734 6.1629 11.7419 7.3015 12.1008C9.15364 12.6761 10.4682 14.0358 10.9 15.5916C10.984 15.8905 11.034 16.1968 11.0491 16.5055C11.1362 17.4743 11.01 18.4495 10.6784 19.3711C9.34853 23.1031 11.2745 27.6351 15.6094 28.9805C16.2463 29.1778 17.2653 29.2764 18.0296 29.2764C24.3057 28.8022 29.3845 25.2782 30.7908 20.4491Z" fill="url(#paint3_linear_76_1330)"/>
<path d="M50.7707 19.5635C50.7707 27.623 41.5827 30.0001 24.2549 30.0001C24.2549 30.0001 32.9742 27.8976 35.5448 17.6191C36.5116 13.8894 39.9203 12.4584 43.3482 12.6391C47.8919 12.8851 50.7707 16.0383 50.7707 19.5635Z" fill="url(#paint4_linear_76_1330)"/>
<path d="M42.845 25.636C46.2971 25.636 49.0956 23.0249 49.0956 19.8039C49.0956 16.5828 46.2971 13.9717 42.845 13.9717C39.3929 13.9717 36.5944 16.5828 36.5944 19.8039C36.5944 23.0249 39.3929 25.636 42.845 25.636Z" fill="url(#paint5_linear_76_1330)"/>
<path d="M49.1873 13.1873C46.4218 6.94265 40.9406 2.81009 29.1284 1.0249C29.1284 1.0249 38.2897 4.72008 36.4949 13.7887C36.4949 13.7887 38.3764 11.1976 42.5316 11.1976C47.0562 11.1976 49.1873 13.1873 49.1873 13.1873Z" fill="url(#paint6_linear_76_1330)" stroke="url(#paint7_linear_76_1330)" stroke-miterlimit="10"/>
<path d="M56.0673 2.63867H59.3066C60.8097 2.63867 61.8954 2.84271 62.5637 3.25077C63.2321 3.65884 63.5692 4.30422 63.5752 5.18691C63.5962 5.71923 63.4223 6.24237 63.0822 6.67021C62.7535 7.06639 62.281 7.31479 61.6644 7.41542V7.48555C62.4287 7.61946 62.9922 7.88529 63.3548 8.28306C63.7174 8.68083 63.8974 9.21805 63.8949 9.89472C63.8949 10.8099 63.5531 11.5262 62.8695 12.0436C62.1858 12.561 61.2322 12.8197 60.0085 12.8197H56.0673V2.63867ZM57.8506 6.84492H59.5677C60.3142 6.84492 60.8589 6.73439 61.202 6.51332C61.5451 6.29225 61.715 5.91746 61.7116 5.38896C61.7116 4.91354 61.5264 4.56768 61.1562 4.35136C60.7859 4.13505 60.1974 4.02808 59.3907 4.03046H57.8506V6.84492ZM57.8506 8.19511V11.4196H59.7537C60.4985 11.4196 61.0619 11.2861 61.4441 11.0191C61.8262 10.7521 62.0164 10.3309 62.0147 9.75566C62.0147 9.22557 61.8207 8.83336 61.4326 8.57901C61.0445 8.32466 60.4547 8.19669 59.6633 8.19511H57.8506Z" fill="url(#paint8_linear_76_1330)"/>
<path d="M67.305 8.75253V12.8197H65.5216V2.63867H68.6042C70.0114 2.63867 71.0538 2.8847 71.7315 3.37676C72.4092 3.86881 72.7488 4.61165 72.7505 5.60527C72.7505 6.87305 72.044 7.77595 70.6309 8.31396L73.7123 12.8197H71.6793L69.0666 8.75253H67.305ZM67.305 7.37383H68.5431C69.3736 7.37383 69.9757 7.23001 70.3494 6.94238C70.723 6.65476 70.9094 6.22728 70.9086 5.65995C70.9086 5.08469 70.7073 4.67187 70.3048 4.42149C69.9023 4.1711 69.2951 4.04551 68.4832 4.04472H67.3037L67.305 7.37383Z" fill="url(#paint9_linear_76_1330)"/>
<path d="M82.6978 12.8196L81.6087 9.99207H77.4357L76.3682 12.8196H74.488L78.5706 2.59814H80.517L84.5933 12.8196H82.6978ZM81.1387 8.5575L80.1196 5.78582C80.044 5.6004 79.9408 5.30802 79.8101 4.90867C79.6793 4.50932 79.5884 4.21654 79.5375 4.03034C79.3826 4.66588 79.1856 5.29186 78.9477 5.90467L77.9617 8.5575H81.1387Z" fill="url(#paint10_linear_76_1330)"/>
<path d="M86.0339 12.8197V2.63867H87.8173V12.8197H86.0339Z" fill="url(#paint11_linear_76_1330)"/>
<path d="M99.7899 12.8197H97.6027L92.2361 4.70674H92.1775L92.2145 5.15957C92.2841 6.02245 92.3189 6.81164 92.3189 7.52715V12.8197H90.6986V2.63867H92.8641L98.2141 10.7101H98.2587C98.2485 10.6031 98.2286 10.214 98.1989 9.54292C98.1691 8.87179 98.1543 8.34843 98.1543 7.97285V2.63867H99.7899V12.8197Z" fill="url(#paint12_linear_76_1330)"/>
<path d="M63.2219 22.7583C63.2219 24.1599 62.8053 25.2296 61.9723 25.9673C61.1392 26.705 59.9384 27.0754 58.3699 27.0786H55.8223V18.5972H58.6336C60.0773 18.5972 61.2033 18.9609 62.0118 19.6883C62.8202 20.4156 63.2236 21.439 63.2219 22.7583ZM61.6551 22.8046C61.6551 20.7738 60.636 19.7584 58.5979 19.7584H57.3126V25.915H58.3699C60.56 25.915 61.6551 24.8782 61.6551 22.8046Z" fill="url(#paint13_linear_76_1330)"/>
<path d="M69.8092 27.0822H64.6655V18.5972H69.8092V19.7703H66.1521V22.0796H69.5799V23.2396H66.1521V25.9043H69.8092V27.0822Z" fill="url(#paint14_linear_76_1330)"/>
<path d="M77.1464 24.7775C77.1464 25.5326 76.8539 26.1249 76.2688 26.5544C75.6836 26.9838 74.8769 27.1986 73.8485 27.1986C72.8193 27.1986 71.9773 27.0496 71.3225 26.7517V25.4443C71.7463 25.6293 72.1894 25.7731 72.6447 25.8733C73.071 25.9732 73.5084 26.0259 73.9479 26.0302C74.5364 26.0302 74.9707 25.926 75.251 25.7176C75.3869 25.618 75.4956 25.4899 75.5685 25.3437C75.6413 25.1975 75.6761 25.0373 75.6701 24.8761C75.6725 24.7239 75.6395 24.5729 75.5736 24.4336C75.5076 24.2943 75.4102 24.17 75.2879 24.0691C75.0331 23.8481 74.5024 23.587 73.6956 23.2859C72.8651 22.9689 72.2804 22.6124 71.9416 22.2162C71.5974 21.8022 71.4174 21.2899 71.4321 20.7662C71.4321 20.0578 71.7017 19.5004 72.2409 19.0939C72.7802 18.6874 73.502 18.4846 74.4064 18.4854C75.3036 18.4908 76.1895 18.6727 77.0063 19.019L76.5337 20.1505C75.7244 19.8336 75.0026 19.6751 74.3682 19.6751C73.8867 19.6751 73.5224 19.7725 73.2727 19.9675C73.1513 20.0615 73.0545 20.1802 72.9898 20.3146C72.9251 20.4489 72.8942 20.5952 72.8995 20.7424C72.8931 20.9403 72.9451 21.136 73.0498 21.3081C73.1749 21.4892 73.3426 21.6413 73.5402 21.7527C73.934 21.9675 74.346 22.152 74.772 22.3041C75.2917 22.4886 75.785 22.7321 76.2407 23.0292C76.5295 23.2291 76.7638 23.4897 76.9248 23.7898C77.0762 24.0996 77.1519 24.437 77.1464 24.7775Z" fill="url(#paint15_linear_76_1330)"/>
<path d="M79.033 27.0822V18.5972H80.517V27.0822H79.033Z" fill="url(#paint16_linear_76_1330)"/>
<path d="M86.7676 22.4802H90.114V26.74C89.5998 26.8996 89.0723 27.0188 88.537 27.0965C87.9961 27.1683 87.4503 27.2032 86.9039 27.2011C85.5282 27.2011 84.4667 26.8208 83.7194 26.0601C82.9721 25.2994 82.5993 24.227 82.601 22.8427C82.601 21.4775 83.0217 20.4078 83.8633 19.6337C84.7049 18.8595 85.8636 18.4721 87.3396 18.4713C88.2672 18.467 89.186 18.6406 90.0388 18.9812L89.5165 20.1364C88.8246 19.8291 88.0689 19.6668 87.3026 19.661C86.332 19.661 85.5647 19.9451 85.0008 20.5132C84.437 21.0813 84.155 21.859 84.155 22.8463C84.155 23.8835 84.4098 24.6719 84.9193 25.2115C85.4288 25.7511 86.16 26.0209 87.1128 26.0209C87.632 26.0168 88.1492 25.9606 88.6554 25.8533V23.67H86.7702L86.7676 22.4802Z" fill="url(#paint17_linear_76_1330)"/>
<path d="M100.006 27.0822H98.1773L93.7061 20.3206H93.6565L93.687 20.6985C93.7456 21.4172 93.7745 22.0748 93.7737 22.6715V27.0822H92.4247V18.5972H94.2284L98.6868 25.3231H98.7237C98.7161 25.2352 98.6995 24.9107 98.674 24.3521C98.6486 23.7935 98.6371 23.3561 98.6371 23.0447V18.5995H100.006V27.0822Z" fill="url(#paint18_linear_76_1330)"/>
</g>
<defs>
<linearGradient id="paint0_linear_76_1330" x1="17.1061" y1="4.26807" x2="17.1061" y2="26.2609" gradientUnits="userSpaceOnUse">
<stop stop-color="#00D2FF"/>
<stop offset="1" stop-color="#FE8FAA"/>
</linearGradient>
<linearGradient id="paint1_linear_76_1330" x1="26.442" y1="0.000229579" x2="26.442" y2="17.2151" gradientUnits="userSpaceOnUse">
<stop stop-color="#00D2FF"/>
<stop offset="1" stop-color="#FE8FAA"/>
</linearGradient>
<linearGradient id="paint2_linear_76_1330" x1="8.45933" y1="12.7758" x2="8.45933" y2="29.9895" gradientUnits="userSpaceOnUse">
<stop stop-color="#00D2FF"/>
<stop offset="1" stop-color="#FE8FAA"/>
</linearGradient>
<linearGradient id="paint3_linear_76_1330" x1="17.45" y1="0.713379" x2="17.45" y2="29.2776" gradientUnits="userSpaceOnUse">
<stop stop-color="#00D2FF"/>
<stop offset="1" stop-color="#FE8FAA"/>
</linearGradient>
<linearGradient id="paint4_linear_76_1330" x1="37.5128" y1="12.6236" x2="37.5128" y2="30.0001" gradientUnits="userSpaceOnUse">
<stop stop-color="#00D2FF"/>
<stop offset="1" stop-color="#FE8FAA"/>
</linearGradient>
<linearGradient id="paint5_linear_76_1330" x1="42.845" y1="13.9717" x2="42.845" y2="25.6348" gradientUnits="userSpaceOnUse">
<stop stop-color="#00D2FF"/>
<stop offset="1" stop-color="#FE8FAA"/>
</linearGradient>
<linearGradient id="paint6_linear_76_1330" x1="39.1572" y1="1.0249" x2="39.1572" y2="13.7887" gradientUnits="userSpaceOnUse">
<stop stop-color="#00D2FF"/>
<stop offset="1" stop-color="#FE8FAA"/>
</linearGradient>
<linearGradient id="paint7_linear_76_1330" x1="39.0005" y1="0.889409" x2="39.0005" y2="14.0573" gradientUnits="userSpaceOnUse">
<stop stop-color="#29ABE2"/>
<stop offset="1" stop-color="#FF7BAC"/>
</linearGradient>
<linearGradient id="paint8_linear_76_1330" x1="59.9779" y1="2.63867" x2="59.9779" y2="12.8197" gradientUnits="userSpaceOnUse">
<stop stop-color="#00D2FF"/>
<stop offset="1" stop-color="#FE8FAA"/>
</linearGradient>
<linearGradient id="paint9_linear_76_1330" x1="69.6157" y1="2.63867" x2="69.6157" y2="12.8197" gradientUnits="userSpaceOnUse">
<stop stop-color="#00D2FF"/>
<stop offset="1" stop-color="#FE8FAA"/>
</linearGradient>
<linearGradient id="paint10_linear_76_1330" x1="79.5413" y1="2.59577" x2="79.5413" y2="12.8196" gradientUnits="userSpaceOnUse">
<stop stop-color="#00D2FF"/>
<stop offset="1" stop-color="#FE8FAA"/>
</linearGradient>
<linearGradient id="paint11_linear_76_1330" x1="86.9256" y1="2.63867" x2="86.9256" y2="12.8197" gradientUnits="userSpaceOnUse">
<stop stop-color="#00D2FF"/>
<stop offset="1" stop-color="#FE8FAA"/>
</linearGradient>
<linearGradient id="paint12_linear_76_1330" x1="95.2449" y1="2.63867" x2="95.2449" y2="12.8197" gradientUnits="userSpaceOnUse">
<stop stop-color="#00D2FF"/>
<stop offset="1" stop-color="#FE8FAA"/>
</linearGradient>
<linearGradient id="paint13_linear_76_1330" x1="59.524" y1="18.5972" x2="59.524" y2="27.0822" gradientUnits="userSpaceOnUse">
<stop stop-color="#00D2FF"/>
<stop offset="1" stop-color="#FE8FAA"/>
</linearGradient>
<linearGradient id="paint14_linear_76_1330" x1="67.2374" y1="18.5972" x2="67.2374" y2="27.0822" gradientUnits="userSpaceOnUse">
<stop stop-color="#00D2FF"/>
<stop offset="1" stop-color="#FE8FAA"/>
</linearGradient>
<linearGradient id="paint15_linear_76_1330" x1="74.2345" y1="18.4758" x2="74.2345" y2="27.1986" gradientUnits="userSpaceOnUse">
<stop stop-color="#00D2FF"/>
<stop offset="1" stop-color="#FE8FAA"/>
</linearGradient>
<linearGradient id="paint16_linear_76_1330" x1="79.7769" y1="18.5972" x2="79.7769" y2="27.0822" gradientUnits="userSpaceOnUse">
<stop stop-color="#00D2FF"/>
<stop offset="1" stop-color="#FE8FAA"/>
</linearGradient>
<linearGradient id="paint17_linear_76_1330" x1="86.3575" y1="18.476" x2="86.3575" y2="27.1987" gradientUnits="userSpaceOnUse">
<stop stop-color="#00D2FF"/>
<stop offset="1" stop-color="#FE8FAA"/>
</linearGradient>
<linearGradient id="paint18_linear_76_1330" x1="96.2118" y1="18.5972" x2="96.2118" y2="27.0822" gradientUnits="userSpaceOnUse">
<stop stop-color="#00D2FF"/>
<stop offset="1" stop-color="#FE8FAA"/>
</linearGradient>
<clipPath id="clip0_76_1330">
<rect width="100" height="30" fill="white"/>
</clipPath>
</defs>
</svg>
