<svg width="250" height="80" viewBox="0 0 250 80" fill="none" xmlns="http://www.w3.org/2000/svg">
<g clip-path="url(#clip0_1464_765)">
<path d="M17.6392 21.2637L24.1293 11.8599L42.8131 11.3813L55.4812 28.2365L54.217 41.3675L60.8536 50.8948L67.8914 60.5553L56.9143 70.0288L32.3964 61.2462L31.3806 42.9173L26.2821 27.4568L17.6392 21.2637Z" fill="url(#paint0_linear_1464_765)"/>
<path d="M86.8395 35.8055C86.8968 35.4886 86.9446 35.1716 86.9796 34.8547C87.7694 28.912 86.8045 23.7616 84.1645 18.7634L84.19 18.8268C79.6647 10.6433 71.8435 4.6562 63.7451 2.01289C57.7837 0.0668452 51.9623 -0.471961 44.9563 0.428162C46.8224 0.269959 48.7014 0.492118 50.4783 1.08107C60.5288 4.40582 66.5539 16.2595 63.2165 26.2116C62.3908 28.6591 62.0396 31.2404 62.1815 33.8183C62.2012 34.6299 62.3004 35.4377 62.4777 36.2302C63.0624 38.8761 64.5043 41.2576 66.5816 43.0083C68.659 44.759 71.2567 45.782 73.9752 45.9199C76.6938 46.0579 79.3825 45.3031 81.628 43.7717C83.8734 42.2403 85.5512 40.0171 86.4032 37.4441C86.5851 36.9082 86.7308 36.3608 86.8395 35.8055Z" fill="url(#paint1_linear_1464_765)"/>
<path d="M0.410813 44.1852C0.351368 44.5021 0.3036 44.8191 0.267509 45.136C-0.52226 51.0756 0.442659 56.2291 3.08584 61.2273L3.05718 61.1639C7.58561 69.3474 15.4037 75.3345 23.5052 77.9778C29.4667 79.9239 35.288 80.4595 42.294 79.5625C40.4308 79.7199 38.555 79.4967 36.7816 78.9065C26.7279 75.5786 20.7028 63.728 24.0434 53.7759C24.8696 51.3286 25.2198 48.747 25.0752 46.1693C25.0155 43.6202 24.1668 41.1517 22.645 39.1005C21.1233 37.0493 19.0026 35.5156 16.5724 34.7085C15.0225 34.1907 13.3851 33.9826 11.7542 34.096C10.1233 34.2094 8.53088 34.6422 7.0684 35.3695C5.60592 36.0969 4.30211 37.1044 3.23178 38.3344C2.16144 39.5644 1.34564 40.9926 0.831173 42.5371C0.652767 43.0761 0.512307 43.6268 0.410813 44.1852Z" fill="url(#paint2_linear_1464_765)"/>
<path d="M76.977 54.5305C77.1585 53.8966 77.3496 52.9014 77.4483 52.3531C77.5056 52.0362 77.547 51.7192 77.5788 51.4023C77.722 50.1949 77.7858 48.9794 77.7699 47.7637C74.9118 48.682 71.8328 48.662 68.9869 47.7067C64.3566 46.1727 61.0701 42.5468 59.9874 38.3949C59.7789 37.5985 59.654 36.7827 59.6148 35.9607C59.396 33.3767 59.7091 30.7754 60.5351 28.316C63.863 18.3608 59.0479 6.27886 48.2109 2.69105C46.6186 2.16492 44.4468 1.90186 42.1603 1.90186C26.4732 3.16963 13.7796 12.567 10.2638 25.4413C10.0887 26.1196 9.88803 27.0704 9.79249 27.6187C9.73517 27.9357 9.69059 28.2526 9.66193 28.5696C9.51952 29.7771 9.45464 30.9924 9.46767 32.2081C12.3271 31.2901 15.4074 31.3112 18.2538 32.2683C22.8842 33.8023 26.1706 37.4282 27.2502 41.577C27.4601 42.3741 27.585 43.1911 27.6228 44.0143C27.8405 46.5977 27.5251 49.1981 26.6961 51.6558C23.3714 61.6079 28.1865 73.693 39.0235 77.2808C40.6158 77.8069 43.1634 78.07 45.0741 78.07C60.7644 76.8054 73.4612 67.408 76.977 54.5305Z" fill="url(#paint3_linear_1464_765)"/>
<path d="M126.927 52.169C126.927 73.661 103.957 79.9999 60.6371 79.9999C60.6371 79.9999 82.4353 74.3931 88.8617 46.9837C91.2788 37.038 99.8007 33.222 108.37 33.7038C119.73 34.3598 126.927 42.7684 126.927 52.169Z" fill="url(#paint4_linear_1464_765)"/>
<path d="M107.112 68.3618C115.743 68.3618 122.739 61.3987 122.739 52.8093C122.739 44.2199 115.743 37.2568 107.112 37.2568C98.482 37.2568 91.4858 44.2199 91.4858 52.8093C91.4858 61.3987 98.482 68.3618 107.112 68.3618Z" fill="url(#paint5_linear_1464_765)"/>
<path d="M122.968 35.1649C116.055 18.5126 102.351 7.49244 72.8211 2.73193C72.8211 2.73193 95.7244 12.5857 91.2374 36.7686C91.2374 36.7686 95.941 29.8592 106.329 29.8592C117.641 29.8592 122.968 35.1649 122.968 35.1649Z" fill="url(#paint6_linear_1464_765)" stroke="url(#paint7_linear_1464_765)" stroke-miterlimit="10"/>
<path d="M140.168 7.03613H148.266C152.024 7.03613 154.738 7.58022 156.409 8.6684C158.08 9.75657 158.923 11.4776 158.938 13.8314C158.99 15.251 158.556 16.646 157.705 17.7869C156.884 18.8434 155.702 19.5058 154.161 19.7741V19.9611C156.072 20.3182 157.48 21.0271 158.387 22.0878C159.293 23.1485 159.743 24.5811 159.737 26.3856C159.737 28.8261 158.883 30.7362 157.174 32.116C155.464 33.4957 153.08 34.1856 150.021 34.1856H140.168V7.03613ZM144.626 18.2528H148.919C150.785 18.2528 152.147 17.958 153.005 17.3685C153.863 16.779 154.287 15.7796 154.279 14.3702C154.279 13.1025 153.816 12.1801 152.89 11.6033C151.965 11.0265 150.493 10.7412 148.477 10.7476H144.626V18.2528ZM144.626 21.8533V30.452H149.384C151.246 30.452 152.655 30.096 153.61 29.3839C154.565 28.6718 155.041 27.5488 155.037 26.0148C155.037 24.6012 154.552 23.5553 153.581 22.877C152.611 22.1988 151.137 21.8575 149.158 21.8533H144.626Z" fill="url(#paint8_linear_1464_765)"/>
<path d="M168.262 23.3398V34.1856H163.804V7.03613H171.51C175.028 7.03613 177.634 7.69221 179.328 9.00436C181.023 10.3165 181.872 12.2974 181.876 14.9471C181.876 18.3278 180.11 20.7355 176.577 22.1702L184.28 34.1856H179.198L172.666 23.3398H168.262ZM168.262 19.6632H171.358C173.434 19.6632 174.939 19.2797 175.873 18.5127C176.807 17.7457 177.273 16.6057 177.271 15.0929C177.271 13.5589 176.768 12.458 175.762 11.7903C174.755 11.1226 173.237 10.7877 171.208 10.7856H168.259L168.262 19.6632Z" fill="url(#paint9_linear_1464_765)"/>
<path d="M206.744 34.1855L204.021 26.6453H193.589L190.92 34.1855H186.22L196.426 6.92822H201.292L211.483 34.1855H206.744ZM202.846 22.8198L200.299 15.4287C200.11 14.9342 199.852 14.1546 199.525 13.0896C199.198 12.0247 198.971 11.244 198.843 10.7474C198.456 12.4422 197.964 14.1115 197.369 15.7456L194.904 22.8198H202.846Z" fill="url(#paint10_linear_1464_765)"/>
<path d="M215.085 34.1856V7.03613H219.543V34.1856H215.085Z" fill="url(#paint11_linear_1464_765)"/>
<path d="M249.475 34.1856H244.007L230.59 12.551H230.444L230.536 13.7585C230.71 16.0595 230.797 18.1641 230.797 20.0721V34.1856H226.746V7.03613H232.16L245.535 28.5598H245.647C245.621 28.2746 245.571 27.2371 245.497 25.4474C245.423 23.6578 245.386 22.2622 245.386 21.2606V7.03613H249.475V34.1856Z" fill="url(#paint12_linear_1464_765)"/>
<path d="M158.056 60.6885C158.056 64.4264 157.014 67.2789 154.932 69.246C152.849 71.2132 149.847 72.201 145.926 72.2095H139.557V49.5923H146.585C150.194 49.5923 153.009 50.5621 155.03 52.5018C157.051 54.4415 158.06 57.1704 158.056 60.6885ZM154.139 60.8121C154.139 55.3966 151.591 52.6888 146.496 52.6888H143.283V69.1066H145.926C151.401 69.1066 154.139 66.3418 154.139 60.8121Z" fill="url(#paint13_linear_1464_765)"/>
<path d="M174.523 72.219H161.664V49.5923H174.523V52.7205H165.38V58.8788H173.95V61.9721H165.38V69.078H174.523V72.219Z" fill="url(#paint14_linear_1464_765)"/>
<path d="M192.866 66.0735C192.866 68.0871 192.135 69.6666 190.672 70.8118C189.209 71.957 187.192 72.5297 184.621 72.5297C182.048 72.5297 179.943 72.1324 178.306 71.3379V67.8516C179.366 68.3449 180.473 68.7283 181.612 68.9957C182.677 69.262 183.771 69.4025 184.87 69.4141C186.341 69.4141 187.427 69.1362 188.127 68.5805C188.467 68.3149 188.739 67.9733 188.921 67.5834C189.103 67.1934 189.19 66.7663 189.175 66.3366C189.181 65.9305 189.099 65.528 188.934 65.1565C188.769 64.7851 188.525 64.4535 188.22 64.1845C187.583 63.595 186.256 62.8988 184.239 62.0958C182.163 61.2507 180.701 60.2998 179.854 59.2433C178.993 58.1395 178.543 56.7732 178.58 55.3766C178.58 53.4876 179.254 52.0012 180.602 50.9172C181.95 49.8332 183.755 49.2923 186.016 49.2944C188.259 49.3091 190.474 49.794 192.516 50.7175L191.334 53.7348C189.311 52.8897 187.506 52.4671 185.92 52.4671C184.717 52.4671 183.806 52.727 183.182 53.2467C182.878 53.4975 182.636 53.8141 182.474 54.1723C182.313 54.5305 182.236 54.9208 182.249 55.3132C182.233 55.8409 182.363 56.3628 182.624 56.8219C182.937 57.3048 183.356 57.7102 183.851 58.0072C184.835 58.5802 185.865 59.0721 186.93 59.4779C188.229 59.9697 189.462 60.619 190.602 61.4112C191.324 61.9445 191.91 62.6394 192.312 63.4397C192.691 64.2659 192.88 65.1655 192.866 66.0735Z" fill="url(#paint15_linear_1464_765)"/>
<path d="M197.582 72.219V49.5923H201.292V72.219H197.582Z" fill="url(#paint16_linear_1464_765)"/>
<path d="M216.919 59.9466H225.285V71.3059C223.999 71.7315 222.681 72.0496 221.342 72.2567C219.99 72.4481 218.625 72.5413 217.26 72.5357C213.82 72.5357 211.167 71.5214 209.298 69.493C207.43 67.4645 206.498 64.6046 206.502 60.9133C206.502 57.2726 207.554 54.4201 209.658 52.3558C211.762 50.2914 214.659 49.2582 218.349 49.2561C220.668 49.2447 222.965 49.7075 225.097 50.6158L223.791 53.6965C222.061 52.8768 220.172 52.4441 218.256 52.4287C215.83 52.4287 213.912 53.1862 212.502 54.7012C211.092 56.2162 210.387 58.29 210.387 60.9228C210.387 63.6887 211.024 65.7911 212.298 67.23C213.572 68.6689 215.4 69.3884 217.782 69.3884C219.08 69.3774 220.373 69.2276 221.638 68.9415V63.1192H216.925L216.919 59.9466Z" fill="url(#paint17_linear_1464_765)"/>
<path d="M250.016 72.219H245.443L234.265 54.188H234.141L234.217 55.1959C234.364 57.1123 234.436 58.8661 234.434 60.4571V72.219H231.061V49.5923H235.571L246.717 67.5282H246.809C246.79 67.2936 246.749 66.4284 246.685 64.9387C246.621 63.4491 246.593 62.2828 246.593 61.4524V49.5986H250.016V72.219Z" fill="url(#paint18_linear_1464_765)"/>
</g>
<defs>
<linearGradient id="paint0_linear_1464_765" x1="42.7653" y1="11.3813" x2="42.7653" y2="70.0288" gradientUnits="userSpaceOnUse">
<stop stop-color="#00D2FF"/>
<stop offset="1" stop-color="#FE8FAA"/>
</linearGradient>
<linearGradient id="paint1_linear_1464_765" x1="66.1049" y1="0.00028669" x2="66.1049" y2="45.9065" gradientUnits="userSpaceOnUse">
<stop stop-color="#00D2FF"/>
<stop offset="1" stop-color="#FE8FAA"/>
</linearGradient>
<linearGradient id="paint2_linear_1464_765" x1="21.1422" y1="34.0683" x2="21.1422" y2="79.9714" gradientUnits="userSpaceOnUse">
<stop stop-color="#00D2FF"/>
<stop offset="1" stop-color="#FE8FAA"/>
</linearGradient>
<linearGradient id="paint3_linear_1464_765" x1="43.6252" y1="1.90186" x2="43.6252" y2="78.0732" gradientUnits="userSpaceOnUse">
<stop stop-color="#00D2FF"/>
<stop offset="1" stop-color="#FE8FAA"/>
</linearGradient>
<linearGradient id="paint4_linear_1464_765" x1="93.7819" y1="33.6626" x2="93.7819" y2="79.9999" gradientUnits="userSpaceOnUse">
<stop stop-color="#00D2FF"/>
<stop offset="1" stop-color="#FE8FAA"/>
</linearGradient>
<linearGradient id="paint5_linear_1464_765" x1="107.112" y1="37.2568" x2="107.112" y2="68.3586" gradientUnits="userSpaceOnUse">
<stop stop-color="#00D2FF"/>
<stop offset="1" stop-color="#FE8FAA"/>
</linearGradient>
<linearGradient id="paint6_linear_1464_765" x1="97.8931" y1="2.73193" x2="97.8931" y2="36.7686" gradientUnits="userSpaceOnUse">
<stop stop-color="#00D2FF"/>
<stop offset="1" stop-color="#FE8FAA"/>
</linearGradient>
<linearGradient id="paint7_linear_1464_765" x1="97.5014" y1="2.37062" x2="97.5014" y2="37.4849" gradientUnits="userSpaceOnUse">
<stop stop-color="#29ABE2"/>
<stop offset="1" stop-color="#FF7BAC"/>
</linearGradient>
<linearGradient id="paint8_linear_1464_765" x1="149.945" y1="7.03613" x2="149.945" y2="34.1856" gradientUnits="userSpaceOnUse">
<stop stop-color="#00D2FF"/>
<stop offset="1" stop-color="#FE8FAA"/>
</linearGradient>
<linearGradient id="paint9_linear_1464_765" x1="174.039" y1="7.03613" x2="174.039" y2="34.1856" gradientUnits="userSpaceOnUse">
<stop stop-color="#00D2FF"/>
<stop offset="1" stop-color="#FE8FAA"/>
</linearGradient>
<linearGradient id="paint10_linear_1464_765" x1="198.853" y1="6.92188" x2="198.853" y2="34.1855" gradientUnits="userSpaceOnUse">
<stop stop-color="#00D2FF"/>
<stop offset="1" stop-color="#FE8FAA"/>
</linearGradient>
<linearGradient id="paint11_linear_1464_765" x1="217.314" y1="7.03613" x2="217.314" y2="34.1856" gradientUnits="userSpaceOnUse">
<stop stop-color="#00D2FF"/>
<stop offset="1" stop-color="#FE8FAA"/>
</linearGradient>
<linearGradient id="paint12_linear_1464_765" x1="238.112" y1="7.03613" x2="238.112" y2="34.1856" gradientUnits="userSpaceOnUse">
<stop stop-color="#00D2FF"/>
<stop offset="1" stop-color="#FE8FAA"/>
</linearGradient>
<linearGradient id="paint13_linear_1464_765" x1="148.811" y1="49.5923" x2="148.811" y2="72.219" gradientUnits="userSpaceOnUse">
<stop stop-color="#00D2FF"/>
<stop offset="1" stop-color="#FE8FAA"/>
</linearGradient>
<linearGradient id="paint14_linear_1464_765" x1="168.093" y1="49.5923" x2="168.093" y2="72.219" gradientUnits="userSpaceOnUse">
<stop stop-color="#00D2FF"/>
<stop offset="1" stop-color="#FE8FAA"/>
</linearGradient>
<linearGradient id="paint15_linear_1464_765" x1="185.586" y1="49.2691" x2="185.586" y2="72.5297" gradientUnits="userSpaceOnUse">
<stop stop-color="#00D2FF"/>
<stop offset="1" stop-color="#FE8FAA"/>
</linearGradient>
<linearGradient id="paint16_linear_1464_765" x1="199.442" y1="49.5923" x2="199.442" y2="72.219" gradientUnits="userSpaceOnUse">
<stop stop-color="#00D2FF"/>
<stop offset="1" stop-color="#FE8FAA"/>
</linearGradient>
<linearGradient id="paint17_linear_1464_765" x1="215.893" y1="49.2687" x2="215.893" y2="72.5293" gradientUnits="userSpaceOnUse">
<stop stop-color="#00D2FF"/>
<stop offset="1" stop-color="#FE8FAA"/>
</linearGradient>
<linearGradient id="paint18_linear_1464_765" x1="240.529" y1="49.5923" x2="240.529" y2="72.219" gradientUnits="userSpaceOnUse">
<stop stop-color="#00D2FF"/>
<stop offset="1" stop-color="#FE8FAA"/>
</linearGradient>
<clipPath id="clip0_1464_765">
<rect width="250" height="80" fill="white"/>
</clipPath>
</defs>
</svg>
