<svg width="80" height="80" viewBox="0 0 80 80" fill="none" xmlns="http://www.w3.org/2000/svg">
<path d="M0 39.9981C0 55.8308 9.2013 69.5131 22.5439 75.9971L3.46323 23.7196C1.24376 28.6943 0 34.1993 0 39.9981Z" fill="white" fill-opacity="0.2"/>
<path d="M67.0039 37.9794C67.0039 33.036 65.2281 29.6125 63.7051 26.9478C61.6774 23.653 59.7769 20.8627 59.7769 17.568C59.7769 13.891 62.5659 10.4683 66.4939 10.4683C66.6712 10.4683 66.8395 10.4904 67.0123 10.5002C59.8956 3.98064 50.4142 0 40.0004 0C26.0259 0 13.7314 7.16973 6.5791 18.0291C7.51753 18.0574 8.40208 18.0771 9.15325 18.0771C13.3373 18.0771 19.8136 17.5695 19.8136 17.5695C21.9699 17.4424 22.2242 20.6094 20.0702 20.8644C20.0702 20.8644 17.9031 21.1192 15.4919 21.2456L30.0585 64.5717L38.8122 38.3188L32.5802 21.2441C30.4261 21.1177 28.3855 20.8627 28.3855 20.8627C26.23 20.7365 26.4827 17.4409 28.6382 17.568C28.6382 17.568 35.244 18.0756 39.1746 18.0756C43.3578 18.0756 49.835 17.568 49.835 17.568C51.9928 17.4409 52.2462 20.6079 50.0916 20.8627C50.0916 20.8627 47.92 21.1177 45.5133 21.2441L59.9689 64.2421L63.9587 50.9098C65.688 45.3773 67.0039 41.4036 67.0039 37.9794Z" fill="white" fill-opacity="0.2"/>
<path d="M40.7023 43.4974L28.7008 78.3705C32.2841 79.4238 36.0737 80 40.0005 80C44.6585 80 49.1257 79.1948 53.2839 77.7328C53.1765 77.5613 53.0792 77.3796 52.9992 77.1816L40.7023 43.4974Z" fill="white" fill-opacity="0.2"/>
<path d="M75.0997 20.8079C75.2719 22.082 75.3693 23.4497 75.3693 24.9209C75.3693 28.98 74.6112 33.5428 72.3277 39.2479L60.1093 74.5733C72.0011 67.6389 80 54.7556 80 39.9992C80.0006 33.045 78.2242 26.5055 75.0997 20.8079Z" fill="white" fill-opacity="0.2"/>
</svg>
