<svg width="100" height="32" viewBox="0 0 100 32" fill="none" xmlns="http://www.w3.org/2000/svg">
<path d="M6.82666 8.87967L9.33845 5.30643L16.5694 5.12457L21.4722 11.5292L20.9829 16.5187L23.5514 20.139L26.2752 23.8098L22.0268 27.4095L12.538 24.0723L12.1448 17.1077L10.1716 11.2329L6.82666 8.87967Z" fill="url(#paint0_linear_76_1197)"/>
<path d="M33.6085 14.4051C33.6307 14.2847 33.6492 14.1642 33.6627 14.0438C33.9684 11.7857 33.5949 9.82863 32.5732 7.9294L32.5831 7.95349C30.8317 4.84391 27.8047 2.56893 24.6705 1.56452C22.3633 0.825058 20.1104 0.620322 17.3989 0.962352C18.1212 0.902238 18.8483 0.986654 19.536 1.21044C23.4257 2.47379 25.7576 6.97798 24.466 10.7596C24.1464 11.6896 24.0105 12.6704 24.0654 13.65C24.073 13.9584 24.1114 14.2653 24.18 14.5665C24.4063 15.5719 24.9644 16.4768 25.7683 17.142C26.5723 17.8072 27.5777 18.196 28.6298 18.2484C29.6819 18.3008 30.7225 18.014 31.5915 17.4321C32.4606 16.8502 33.1099 16.0054 33.4396 15.0277C33.51 14.8241 33.5664 14.6161 33.6085 14.4051Z" fill="url(#paint1_linear_76_1197)"/>
<path d="M0.15898 17.5894C0.135974 17.7098 0.117487 17.8303 0.103519 17.9507C-0.202136 20.2076 0.171305 22.1658 1.19426 24.0651L1.18317 24.041C2.93575 27.1506 5.96149 29.4255 9.09691 30.43C11.4041 31.1694 13.6571 31.373 16.3685 31.0321C15.6474 31.0919 14.9214 31.0071 14.2351 30.7828C10.3442 29.5183 8.01233 25.0153 9.3052 21.2337C9.62496 20.3038 9.76048 19.3228 9.70452 18.3433C9.68142 17.3747 9.35297 16.4367 8.76402 15.6573C8.17507 14.8779 7.35432 14.2951 6.41381 13.9884C5.81396 13.7917 5.18027 13.7126 4.54907 13.7557C3.91787 13.7988 3.30159 13.9632 2.73558 14.2396C2.16958 14.516 1.66498 14.8988 1.25074 15.3662C0.836506 15.8336 0.520776 16.3763 0.321667 16.9631C0.252621 17.1679 0.19826 17.3772 0.15898 17.5894Z" fill="url(#paint2_linear_76_1197)"/>
<path d="M29.7915 21.5203C29.8618 21.2794 29.9357 20.9013 29.9739 20.6929C29.9961 20.5725 30.0121 20.4521 30.0245 20.3316C30.0798 19.8728 30.1046 19.411 30.0984 18.9491C28.9922 19.298 27.8006 19.2904 26.6992 18.9274C24.9072 18.3445 23.6353 16.9667 23.2162 15.3891C23.1356 15.0865 23.0872 14.7765 23.072 14.4641C22.9874 13.4823 23.1086 12.4938 23.4282 11.5593C24.7162 7.77649 22.8527 3.18558 18.6585 1.82228C18.0423 1.62236 17.2017 1.5224 16.3168 1.5224C10.2456 2.00413 5.33298 5.57497 3.97233 10.467C3.90454 10.7247 3.82689 11.086 3.78992 11.2943C3.76774 11.4148 3.75048 11.5352 3.73939 11.6556C3.68427 12.1145 3.65916 12.5763 3.66421 13.0382C4.77087 12.6894 5.96297 12.6974 7.06461 13.0611C8.85664 13.644 10.1286 15.0217 10.5464 16.5982C10.6276 16.9011 10.6759 17.2115 10.6906 17.5243C10.7748 18.506 10.6528 19.4941 10.3319 20.428C9.04521 24.2096 10.9087 28.8017 15.1028 30.165C15.7191 30.3649 16.7051 30.4649 17.4445 30.4649C23.517 29.9843 28.4309 26.4135 29.7915 21.5203Z" fill="url(#paint3_linear_76_1197)"/>
<path d="M49.1228 20.6231C49.1228 28.7896 40.2329 31.1983 23.4675 31.1983C23.4675 31.1983 31.9038 29.0678 34.391 18.6528C35.3264 14.8736 38.6245 13.4236 41.9411 13.6066C46.3374 13.8559 49.1228 17.051 49.1228 20.6231Z" fill="url(#paint4_linear_76_1197)"/>
<path d="M41.4544 26.776C44.7945 26.776 47.5022 24.1302 47.5022 20.8664C47.5022 17.6026 44.7945 14.9567 41.4544 14.9567C38.1143 14.9567 35.4066 17.6026 35.4066 20.8664C35.4066 24.1302 38.1143 26.776 41.4544 26.776Z" fill="url(#paint5_linear_76_1197)"/>
<path d="M47.5909 14.1619C44.9152 7.83431 39.6119 3.64686 28.1831 1.83795C28.1831 1.83795 37.0471 5.58221 35.3105 14.7713C35.3105 14.7713 37.1309 12.1458 41.1512 12.1458C45.529 12.1458 47.5909 14.1619 47.5909 14.1619Z" fill="url(#paint6_linear_76_1197)" stroke="url(#paint7_linear_76_1197)" stroke-width="0.696632" stroke-miterlimit="10"/>
<path d="M57.4868 3.57611H60.621C62.0753 3.57611 63.1258 3.78285 63.7725 4.19634C64.4191 4.60983 64.7453 5.26378 64.751 6.1582C64.7714 6.69759 64.6032 7.22768 64.2741 7.6612C63.9561 8.06264 63.4988 8.31435 62.9023 8.41631V8.48737C63.6418 8.62306 64.187 8.89243 64.5378 9.29547C64.8887 9.69852 65.0629 10.2429 65.0604 10.9285C65.0604 11.8559 64.7297 12.5817 64.0683 13.106C63.4068 13.6303 62.4841 13.8924 61.3001 13.8924H57.4868V3.57611ZM59.2123 7.83823H60.8737C61.5959 7.83823 62.123 7.72623 62.4549 7.50223C62.7869 7.27822 62.9512 6.89846 62.9479 6.36293C62.9479 5.8812 62.7688 5.53074 62.4106 5.31155C62.0523 5.09236 61.4829 4.98397 60.7024 4.98638H59.2123V7.83823ZM59.2123 9.20635V12.4737H61.0536C61.7742 12.4737 62.3194 12.3384 62.6891 12.0678C63.0589 11.7973 63.2429 11.3705 63.2413 10.7876C63.2413 10.2505 63.0535 9.85308 62.678 9.59535C62.3025 9.33763 61.7319 9.20796 60.9661 9.20635H59.2123Z" fill="url(#paint8_linear_76_1197)"/>
<path d="M68.3597 9.77118V13.8924H66.6343V3.57611H69.6169C70.9783 3.57611 71.9869 3.82541 72.6426 4.324C73.2983 4.82259 73.6269 5.5753 73.6286 6.58212C73.6286 7.86674 72.945 8.78163 71.5777 9.32679L74.5591 13.8924H72.5921L70.0643 9.77118H68.3597ZM68.3597 8.37416H69.5577C70.3613 8.37416 70.9438 8.22844 71.3054 7.93699C71.6669 7.64554 71.8472 7.21238 71.8464 6.63752C71.8464 6.05462 71.6517 5.63632 71.2622 5.38261C70.8728 5.12889 70.2853 5.00164 69.4998 5.00083H68.3585L68.3597 8.37416Z" fill="url(#paint9_linear_76_1197)"/>
<path d="M83.2531 13.8924L82.1994 11.0273H78.1618L77.129 13.8924H75.3098L79.2599 3.53516H81.1431L85.0871 13.8924H83.2531ZM81.7446 9.57367L80.7586 6.76517C80.6855 6.57729 80.5856 6.28103 80.4591 5.87637C80.3326 5.47172 80.2447 5.17505 80.1954 4.98637C80.0455 5.63036 79.8549 6.26465 79.6247 6.8856L78.6708 9.57367H81.7446Z" fill="url(#paint10_linear_76_1197)"/>
<path d="M86.481 13.8924V3.57611H88.2064V13.8924H86.481Z" fill="url(#paint11_linear_76_1197)"/>
<path d="M99.7905 13.8924H97.6743L92.4819 5.67165H92.4252L92.4609 6.1305C92.5283 7.00484 92.562 7.80451 92.562 8.52952V13.8924H90.9943V3.57611H93.0895L98.2659 11.7547H98.309C98.2992 11.6463 98.2799 11.2521 98.2511 10.5721C98.2223 9.89202 98.208 9.36171 98.208 8.98114V3.57611H99.7905V13.8924Z" fill="url(#paint12_linear_76_1197)"/>
<path d="M64.4097 23.963C64.4097 25.3833 64.0067 26.4672 63.2006 27.2147C62.3946 27.9622 61.2328 28.3375 59.7152 28.3407H57.2502V19.7466H59.9703C61.3671 19.7466 62.4566 20.1152 63.2389 20.8522C64.0211 21.5893 64.4113 22.6262 64.4097 23.963ZM62.8938 24.01C62.8938 21.9522 61.9078 20.9233 59.9358 20.9233H58.6922V27.1617H59.7152C61.8342 27.1617 62.8938 26.1111 62.8938 24.01Z" fill="url(#paint13_linear_76_1197)"/>
<path d="M70.7829 28.3444H65.8062V19.7466H70.7829V20.9353H67.2445V23.2753H70.5611V24.4508H67.2445V27.1509H70.7829V28.3444Z" fill="url(#paint14_linear_76_1197)"/>
<path d="M77.8818 26.0091C77.8818 26.7743 77.5988 27.3745 77.0327 27.8096C76.4665 28.2448 75.686 28.4624 74.691 28.4624C73.6951 28.4624 72.8804 28.3114 72.2469 28.0095V26.6848C72.657 26.8723 73.0857 27.0179 73.5263 27.1195C73.9387 27.2207 74.3619 27.2741 74.7871 27.2785C75.3565 27.2785 75.7768 27.1729 76.0479 26.9618C76.1794 26.8609 76.2846 26.731 76.3551 26.5829C76.4256 26.4347 76.4592 26.2724 76.4534 26.1091C76.4557 25.9548 76.4239 25.8019 76.3601 25.6607C76.2962 25.5196 76.2019 25.3936 76.0837 25.2914C75.8372 25.0674 75.3236 24.8028 74.5431 24.4977C73.7395 24.1766 73.1738 23.8153 72.8459 23.4138C72.5129 22.9944 72.3387 22.4752 72.3529 21.9445C72.3529 21.2268 72.6138 20.6619 73.1356 20.25C73.6573 19.8382 74.3557 19.6326 75.2308 19.6334C76.0988 19.639 76.956 19.8232 77.7463 20.1742L77.289 21.3207C76.506 20.9995 75.8076 20.839 75.1938 20.839C74.7279 20.839 74.3754 20.9377 74.1339 21.1352C74.0164 21.2305 73.9227 21.3508 73.8601 21.4869C73.7975 21.623 73.7677 21.7713 73.7728 21.9204C73.7666 22.1209 73.8169 22.3193 73.9182 22.4937C74.0392 22.6772 74.2015 22.8313 74.3927 22.9441C74.7737 23.1619 75.1723 23.3487 75.5845 23.5029C76.0873 23.6898 76.5646 23.9366 77.0055 24.2376C77.285 24.4402 77.5117 24.7043 77.6674 25.0084C77.8139 25.3223 77.8872 25.6641 77.8818 26.0091Z" fill="url(#paint15_linear_76_1197)"/>
<path d="M79.7072 28.3444V19.7466H81.143V28.3444H79.7072Z" fill="url(#paint16_linear_76_1197)"/>
<path d="M87.1909 23.6812H90.4286V27.9975C89.9312 28.1592 89.4208 28.2801 88.9028 28.3588C88.3794 28.4315 87.8514 28.4669 87.3227 28.4648C85.9917 28.4648 84.9646 28.0794 84.2415 27.3086C83.5185 26.5379 83.1578 25.4511 83.1594 24.0485C83.1594 22.6651 83.5666 21.5812 84.3808 20.7968C85.1951 20.0124 86.3162 19.6198 87.7442 19.619C88.6418 19.6147 89.5307 19.7905 90.3559 20.1356L89.8506 21.3062C89.1811 20.9948 88.45 20.8304 87.7085 20.8245C86.7694 20.8245 86.027 21.1123 85.4814 21.688C84.9358 22.2637 84.6631 23.0517 84.6631 24.0521C84.6631 25.1031 84.9095 25.902 85.4025 26.4487C85.8955 26.9955 86.603 27.2689 87.5249 27.2689C88.0272 27.2647 88.5276 27.2078 89.0174 27.0991V24.8867H87.1933L87.1909 23.6812Z" fill="url(#paint17_linear_76_1197)"/>
<path d="M100 28.3444H98.2302L93.9042 21.4929H93.8561L93.8857 21.8759C93.9424 22.6041 93.9703 23.2705 93.9695 23.8751V28.3444H92.6643V19.7466H94.4095L98.7232 26.5619H98.7589C98.7515 26.4728 98.7355 26.144 98.7108 25.578C98.6862 25.012 98.6751 24.5688 98.6751 24.2532V19.7491H100V28.3444Z" fill="url(#paint18_linear_76_1197)"/>
<defs>
<linearGradient id="paint0_linear_76_1197" x1="16.5509" y1="5.12457" x2="16.5509" y2="27.4095" gradientUnits="userSpaceOnUse">
<stop stop-color="#00D2FF"/>
<stop offset="1" stop-color="#FE8FAA"/>
</linearGradient>
<linearGradient id="paint1_linear_76_1197" x1="25.5838" y1="0.799767" x2="25.5838" y2="18.2433" gradientUnits="userSpaceOnUse">
<stop stop-color="#00D2FF"/>
<stop offset="1" stop-color="#FE8FAA"/>
</linearGradient>
<linearGradient id="paint2_linear_76_1197" x1="8.18241" y1="13.7452" x2="8.18241" y2="31.1875" gradientUnits="userSpaceOnUse">
<stop stop-color="#00D2FF"/>
<stop offset="1" stop-color="#FE8FAA"/>
</linearGradient>
<linearGradient id="paint3_linear_76_1197" x1="16.8838" y1="1.5224" x2="16.8838" y2="30.4661" gradientUnits="userSpaceOnUse">
<stop stop-color="#00D2FF"/>
<stop offset="1" stop-color="#FE8FAA"/>
</linearGradient>
<linearGradient id="paint4_linear_76_1197" x1="36.2952" y1="13.591" x2="36.2952" y2="31.1983" gradientUnits="userSpaceOnUse">
<stop stop-color="#00D2FF"/>
<stop offset="1" stop-color="#FE8FAA"/>
</linearGradient>
<linearGradient id="paint5_linear_76_1197" x1="41.4544" y1="14.9567" x2="41.4544" y2="26.7748" gradientUnits="userSpaceOnUse">
<stop stop-color="#00D2FF"/>
<stop offset="1" stop-color="#FE8FAA"/>
</linearGradient>
<linearGradient id="paint6_linear_76_1197" x1="37.8864" y1="1.83795" x2="37.8864" y2="14.7713" gradientUnits="userSpaceOnUse">
<stop stop-color="#00D2FF"/>
<stop offset="1" stop-color="#FE8FAA"/>
</linearGradient>
<linearGradient id="paint7_linear_76_1197" x1="37.7348" y1="1.70066" x2="37.7348" y2="15.0434" gradientUnits="userSpaceOnUse">
<stop stop-color="#29ABE2"/>
<stop offset="1" stop-color="#FF7BAC"/>
</linearGradient>
<linearGradient id="paint8_linear_76_1197" x1="61.2705" y1="3.57611" x2="61.2705" y2="13.8924" gradientUnits="userSpaceOnUse">
<stop stop-color="#00D2FF"/>
<stop offset="1" stop-color="#FE8FAA"/>
</linearGradient>
<linearGradient id="paint9_linear_76_1197" x1="70.5955" y1="3.57611" x2="70.5955" y2="13.8924" gradientUnits="userSpaceOnUse">
<stop stop-color="#00D2FF"/>
<stop offset="1" stop-color="#FE8FAA"/>
</linearGradient>
<linearGradient id="paint10_linear_76_1197" x1="80.1991" y1="3.53275" x2="80.1991" y2="13.8924" gradientUnits="userSpaceOnUse">
<stop stop-color="#00D2FF"/>
<stop offset="1" stop-color="#FE8FAA"/>
</linearGradient>
<linearGradient id="paint11_linear_76_1197" x1="87.3437" y1="3.57611" x2="87.3437" y2="13.8924" gradientUnits="userSpaceOnUse">
<stop stop-color="#00D2FF"/>
<stop offset="1" stop-color="#FE8FAA"/>
</linearGradient>
<linearGradient id="paint12_linear_76_1197" x1="95.393" y1="3.57611" x2="95.393" y2="13.8924" gradientUnits="userSpaceOnUse">
<stop stop-color="#00D2FF"/>
<stop offset="1" stop-color="#FE8FAA"/>
</linearGradient>
<linearGradient id="paint13_linear_76_1197" x1="60.8318" y1="19.7466" x2="60.8318" y2="28.3444" gradientUnits="userSpaceOnUse">
<stop stop-color="#00D2FF"/>
<stop offset="1" stop-color="#FE8FAA"/>
</linearGradient>
<linearGradient id="paint14_linear_76_1197" x1="68.2945" y1="19.7466" x2="68.2945" y2="28.3444" gradientUnits="userSpaceOnUse">
<stop stop-color="#00D2FF"/>
<stop offset="1" stop-color="#FE8FAA"/>
</linearGradient>
<linearGradient id="paint15_linear_76_1197" x1="75.0644" y1="19.6238" x2="75.0644" y2="28.4624" gradientUnits="userSpaceOnUse">
<stop stop-color="#00D2FF"/>
<stop offset="1" stop-color="#FE8FAA"/>
</linearGradient>
<linearGradient id="paint16_linear_76_1197" x1="80.4269" y1="19.7466" x2="80.4269" y2="28.3444" gradientUnits="userSpaceOnUse">
<stop stop-color="#00D2FF"/>
<stop offset="1" stop-color="#FE8FAA"/>
</linearGradient>
<linearGradient id="paint17_linear_76_1197" x1="86.794" y1="19.6238" x2="86.794" y2="28.4624" gradientUnits="userSpaceOnUse">
<stop stop-color="#00D2FF"/>
<stop offset="1" stop-color="#FE8FAA"/>
</linearGradient>
<linearGradient id="paint18_linear_76_1197" x1="96.3285" y1="19.7466" x2="96.3285" y2="28.3444" gradientUnits="userSpaceOnUse">
<stop stop-color="#00D2FF"/>
<stop offset="1" stop-color="#FE8FAA"/>
</linearGradient>
</defs>
</svg>
